HIERARCHY
ROOT torus_large
{
	OFFSET 0.000000 0.000000 0.000000
	CHANNELS 6 Xposition Yposition Zposition Yrotation Xrotation Zrotation
	End Site
	{
		OFFSET 0.000000 0.000000 0.000000
	}
}
MOTION
Frames: 127
Frame Time: 0.008333334
-0.119662 4.534893 3.158050 -98.801030 -12.838100 -82.736880 
-0.231641 4.482985 3.169250 -99.257690 -9.797943 -83.332000 
-0.343620 4.431077 3.180451 -99.744110 -6.753448 -83.948820 
-0.455599 4.379168 3.191652 -100.261800 -3.709778 -84.589480 
-0.567577 4.327260 3.202852 -100.812400 -0.672211 -85.256350 
-0.679556 4.275352 3.214053 -101.397900 2.354024 -85.951780 
-0.791535 4.223443 3.225253 -102.020300 5.363594 -86.678440 
-0.910038 4.152357 3.232795 -102.416800 8.246584 -87.503330 
-1.029362 4.075369 3.238523 -102.728500 11.829450 -88.412380 
-1.148161 3.992836 3.242949 -103.303000 15.324770 -89.127080 
-1.263119 3.905522 3.248897 -103.802600 19.267810 -89.607480 
-1.372729 3.815438 3.256061 -104.329000 22.861040 -90.425350 
-1.476824 3.722927 3.265189 -105.039600 26.497190 -91.154270 
-1.572991 3.628157 3.276896 -105.612700 29.705160 -91.965210 
-1.663629 3.531252 3.288877 -106.242100 32.431100 -92.655880 
-1.747226 3.433215 3.298022 -106.969700 35.044350 -93.689640 
-1.824238 3.334917 3.303047 -107.506300 37.295300 -94.188960 
-1.895678 3.235729 3.302695 -107.960800 39.976600 -94.432460 
-1.960086 3.138185 3.300576 -108.486900 42.323460 -94.427700 
-2.019032 3.041594 3.298942 -109.057900 44.549060 -94.361970 
-2.072980 2.947329 3.300582 -110.032400 46.751510 -95.074310 
-2.122098 2.854382 3.305567 -111.034300 48.458520 -96.002620 
-2.168100 2.763966 3.313605 -112.239100 50.200800 -97.187680 
-2.211624 2.674430 3.322847 -113.689100 51.818100 -98.729740 
-2.252571 2.586218 3.332289 -115.237700 53.548630 -100.363500 
-2.291982 2.498361 3.339976 -116.780400 55.217640 -101.896100 
-2.328674 2.411144 3.344245 -118.478300 56.968930 -103.566000 
-2.362949 2.324628 3.346778 -120.075200 58.806580 -104.736500 
-2.393610 2.241101 3.346788 -121.667800 60.761150 -105.904700 
-2.420662 2.160445 3.344939 -123.875600 62.355110 -107.635300 
-2.443873 2.084905 3.345357 -125.346700 63.972510 -108.368400 
-2.463543 2.015453 3.346668 -128.277100 65.167300 -110.951100 
-2.479347 1.952288 3.352133 -131.151400 66.122740 -113.277900 
-2.492387 1.895678 3.359196 -134.326600 66.706330 -116.342700 
-2.502337 1.846043 3.368395 -136.580400 67.149410 -118.440700 
-2.509881 1.801848 3.376391 -138.788900 67.317070 -120.870800 
-2.515274 1.763419 3.383155 -139.710100 67.498470 -121.584500 
-2.518362 1.729273 3.388272 -140.002000 68.030060 -121.502000 
-2.519560 1.698801 3.389996 -140.283200 68.204890 -121.718400 
-2.519572 1.671087 3.389372 -140.618300 68.775130 -121.487300 
-2.518226 1.645691 3.385755 -141.009000 68.917400 -121.341100 
-2.515878 1.622743 3.379909 -141.636100 69.382870 -121.016700 
-2.513713 1.601323 3.372175 -142.454500 69.636270 -121.288300 
-2.510838 1.580311 3.362746 -144.363700 69.851070 -122.344700 
-2.508134 1.560068 3.353588 -146.024800 70.255600 -123.007800 
-2.504927 1.541354 3.342472 -147.971100 70.457560 -124.284300 
-2.501394 1.523534 3.331181 -149.457200 70.816410 -125.049500 
-2.497195 1.506644 3.319359 -150.195400 71.311260 -125.069800 
-2.491745 1.491006 3.305995 -150.203300 71.776470 -124.279900 
-2.487195 1.477237 3.293006 -149.416200 72.356660 -122.694400 
-2.481442 1.463237 3.278375 -148.276500 72.680250 -120.705800 
-2.476817 1.449450 3.264749 -146.343700 73.074390 -117.919300 
-2.472745 1.435104 3.251527 -146.337000 73.791920 -117.030600 
-2.471231 1.419414 3.239437 -145.824900 74.239250 -116.108400 
-2.470511 1.403048 3.228542 -145.258500 74.641700 -114.898400 
-2.471485 1.385466 3.219702 -144.979700 75.020110 -114.170400 
-2.474399 1.369189 3.211736 -144.939000 75.389130 -113.798500 
-2.478239 1.352672 3.205802 -143.445600 75.634190 -111.914200 
-2.482397 1.337166 3.201504 -142.258000 75.984660 -110.685400 
-2.488071 1.320542 3.198089 -141.001800 76.253140 -109.121200 
-2.494247 1.303084 3.194643 -139.517300 76.593050 -107.550300 
-2.501122 1.283383 3.191944 -137.361800 76.847820 -105.254500 
-2.508301 1.261781 3.188833 -136.216400 77.406780 -103.996400 
-2.516386 1.237676 3.185762 -134.293300 77.868850 -102.032400 
-2.524124 1.212644 3.183327 -131.845600 78.195560 -99.539000 
-2.532744 1.187053 3.181800 -129.127700 78.727080 -96.848820 
-2.541638 1.161922 3.180502 -126.415300 79.548480 -94.214750 
-2.550296 1.137837 3.180318 -122.023800 79.748270 -89.910920 
-2.558556 1.115068 3.181010 -117.602300 80.133510 -85.574550 
-2.565771 1.094125 3.181831 -112.533000 79.995730 -80.534480 
-2.572496 1.075569 3.182414 -109.010700 80.027730 -76.966130 
-2.577681 1.058988 3.183044 -106.341000 80.009180 -74.460330 
-2.582180 1.044216 3.184034 -106.042500 79.687460 -74.057740 
-2.586136 1.030765 3.186138 -105.893800 79.924970 -73.812380 
-2.591878 1.018329 3.188390 -108.390200 79.971660 -76.674620 
-2.597111 1.004917 3.192487 -111.184600 80.027590 -79.467190 
-2.602351 0.989779 3.196694 -114.940600 80.519810 -83.378110 
-2.608520 0.975518 3.200586 -119.478400 80.557980 -88.175600 
-2.613435 0.959913 3.204774 -122.541100 81.090600 -91.441100 
-2.619185 0.944875 3.208222 -126.394000 81.372380 -95.566770 
-2.622211 0.930626 3.210926 -129.259200 81.643750 -98.768590 
-2.625844 0.916733 3.213266 -131.391200 81.939540 -100.962700 
-2.628285 0.904152 3.214680 -132.776800 81.980670 -102.493200 
-2.629560 0.891749 3.215697 -133.777400 82.194830 -103.556100 
-2.630705 0.880089 3.215372 -132.679100 82.039090 -102.381600 
-2.631216 0.868422 3.215117 -134.084800 82.344680 -103.963600 
-2.631734 0.856571 3.214206 -134.902700 82.517400 -104.804900 
-2.631668 0.844759 3.212799 -134.771600 82.854220 -104.592200 
-2.630530 0.833339 3.210927 -136.603400 82.975520 -106.398400 
-2.629256 0.823342 3.208485 -136.523000 83.012920 -106.232400 
-2.627197 0.813714 3.205523 -139.039900 83.263990 -108.576300 
-2.624665 0.804542 3.202078 -139.675700 83.253950 -109.108900 
-2.622187 0.795285 3.198791 -141.155600 83.289250 -110.509600 
-2.620202 0.786456 3.195141 -142.385200 83.366940 -111.674900 
-2.617638 0.777571 3.190998 -143.062800 83.641370 -112.221200 
-2.614696 0.768306 3.187685 -143.526000 83.706710 -112.553200 
-2.611964 0.759923 3.183579 -144.899000 84.105480 -113.824000 
-2.610452 0.751203 3.180359 -143.287500 84.057170 -112.108600 
-2.608121 0.742743 3.177791 -143.583700 84.455250 -112.203300 
-2.607359 0.735248 3.175957 -142.559200 84.512130 -111.229900 
-2.606353 0.727330 3.174331 -142.932000 84.757450 -111.534500 
-2.606823 0.719777 3.173631 -140.880200 84.744540 -109.383900 
-2.606957 0.713410 3.173075 -140.838200 85.156620 -109.513900 
-2.607388 0.706665 3.172545 -139.541300 85.210340 -108.249200 
-2.608483 0.702859 3.172262 -138.873400 85.251090 -107.618200 
-2.609321 0.704590 3.172779 -139.646200 85.167430 -108.414900 
-2.611023 0.705569 3.175088 -141.612800 84.950230 -110.547800 
-2.613045 0.706530 3.176662 -142.471000 84.604490 -111.546300 
-2.614231 0.705656 3.176833 -144.328100 84.519780 -113.453700 
-2.615483 0.705584 3.176844 -145.065000 84.606580 -114.081200 
-2.617232 0.705322 3.176985 -145.775200 84.576320 -114.836600 
-2.618999 0.705092 3.177565 -145.310300 84.578050 -114.269500 
-2.620629 0.704980 3.177532 -145.281600 84.568980 -114.452300 
-2.621354 0.705167 3.177057 -145.323000 84.644340 -114.489000 
-2.622814 0.705468 3.175695 -143.943100 84.458680 -113.099300 
-2.623232 0.705607 3.174371 -143.343100 84.440990 -112.438800 
-2.623429 0.705832 3.172499 -143.495300 84.560120 -112.538000 
-2.623431 0.705887 3.170319 -142.551700 84.556020 -111.516500 
-2.623513 0.705959 3.167937 -141.646800 84.564620 -110.540300 
-2.623628 0.706332 3.166454 -141.587000 84.561130 -110.460500 
-2.623388 0.706638 3.165288 -142.901000 84.651260 -111.752700 
-2.624139 0.707024 3.164720 -141.255900 84.384130 -110.101700 
-2.624600 0.707193 3.164510 -142.724700 84.392230 -111.518700 
-2.625228 0.707214 3.164477 -142.975300 84.361290 -111.754500 
-2.626197 0.706765 3.164734 -143.925900 84.419740 -112.793500 
-2.627034 0.706492 3.165496 -145.190900 84.429090 -114.151000 
-2.628172 0.706239 3.166289 -145.399600 84.381420 -114.381900 
